<svg xmlns="http://www.w3.org/2000/svg" xmlns:xlink="http://www.w3.org/1999/xlink" width="500" zoomAndPan="magnify" viewBox="0 0 375 374.999991" height="500" preserveAspectRatio="xMidYMid meet" version="1.0"><defs><g/></defs><g fill="#2b2b2b" fill-opacity="0.4"><g transform="translate(90.750697, 249.811563)"><g><path d="M 48.1875 -99.421875 C 46.46875 -99.421875 43.113281 -99.726562 38.125 -100.34375 C 33.132812 -100.96875 29.117188 -101.4375 26.078125 -101.75 C 23.035156 -102.0625 20.425781 -101.90625 18.25 -101.28125 C 15.28125 -100.351562 13.097656 -98.09375 11.703125 -94.5 C 9.046875 -87.175781 11.695312 -84.210938 19.65625 -85.609375 C 26.976562 -86.859375 39.6875 -92.472656 57.78125 -102.453125 C 60.738281 -104.015625 63.78125 -105.421875 66.90625 -106.671875 C 64.71875 -105.109375 63.347656 -102.6875 62.796875 -99.40625 C 62.253906 -96.132812 61.90625 -91.222656 61.75 -84.671875 C 61.75 -83.585938 61.75 -82.734375 61.75 -82.109375 C 68.925781 -82.109375 75.242188 -82.421875 80.703125 -83.046875 C 81.484375 -83.046875 81.953125 -82.535156 82.109375 -81.515625 C 82.265625 -80.503906 81.953125 -79.765625 81.171875 -79.296875 C 80.078125 -79.765625 76.566406 -80 70.640625 -80 C 64.710938 -80 61.671875 -79.6875 61.515625 -79.0625 L 61.515625 -72.046875 C 61.515625 -70.484375 61.515625 -68.765625 61.515625 -66.890625 C 61.515625 -65.023438 61.515625 -62.960938 61.515625 -60.703125 C 61.515625 -58.441406 61.515625 -56.6875 61.515625 -55.4375 C 61.828125 -44.988281 61.90625 -37.191406 61.75 -32.046875 L 61.75 -31.109375 C 61.75 -30.640625 61.828125 -29.195312 61.984375 -26.78125 C 62.140625 -24.363281 62.296875 -22.53125 62.453125 -21.28125 C 62.609375 -20.039062 63.035156 -18.484375 63.734375 -16.609375 C 64.441406 -14.734375 65.34375 -13.5625 66.4375 -13.09375 C 67.53125 -12.625 69.085938 -12.582031 71.109375 -12.96875 C 73.140625 -13.363281 75.554688 -14.5 78.359375 -16.375 C 78.515625 -16.375 78.671875 -16.375 78.828125 -16.375 C 79.140625 -16.375 79.332031 -16.332031 79.40625 -16.25 C 79.488281 -16.175781 79.453125 -15.984375 79.296875 -15.671875 C 74.304688 -8.648438 68.847656 -3.660156 62.921875 -0.703125 C 59.179688 1.171875 55.359375 0.160156 51.453125 -3.734375 C 47.554688 -7.640625 45.53125 -12.007812 45.375 -16.84375 C 43.976562 -14.96875 43.203125 -14.03125 43.046875 -14.03125 C 37.117188 -6.863281 32.128906 -2.578125 28.078125 -1.171875 C 25.265625 -0.390625 22.457031 -0.46875 19.65625 -1.40625 C 11.851562 -6.082031 6.664062 -11.847656 4.09375 -18.703125 C 1.519531 -25.566406 1.128906 -32.234375 2.921875 -38.703125 C 4.710938 -45.179688 7.085938 -51.304688 10.046875 -57.078125 C 13.015625 -62.847656 15.707031 -67.523438 18.125 -71.109375 C 20.539062 -74.703125 21.515625 -76.5 21.046875 -76.5 C 15.898438 -76.800781 10.789062 -75.472656 5.71875 -72.515625 C 0.65625 -69.554688 -2.960938 -65.96875 -5.140625 -61.75 C -5.921875 -60.195312 -6.78125 -60.195312 -7.71875 -61.75 C -7.5625 -62.21875 -7.25 -63.269531 -6.78125 -64.90625 C -6.3125 -66.550781 -5.957031 -67.679688 -5.71875 -68.296875 C -5.488281 -68.921875 -5.101562 -69.9375 -4.5625 -71.34375 C -4.019531 -72.75 -3.515625 -73.765625 -3.046875 -74.390625 C -2.578125 -75.015625 -1.953125 -75.789062 -1.171875 -76.71875 C -0.390625 -77.65625 0.425781 -78.394531 1.28125 -78.9375 C 2.144531 -79.488281 3.117188 -79.921875 4.203125 -80.234375 C 5.296875 -81.015625 10.015625 -81.363281 18.359375 -81.28125 C 26.703125 -81.207031 31.5 -81.171875 32.75 -81.171875 C 37.269531 -81.171875 41.09375 -81.328125 44.21875 -81.640625 C 44.363281 -81.640625 44.515625 -81.753906 44.671875 -81.984375 C 44.828125 -82.222656 44.941406 -82.65625 45.015625 -83.28125 C 45.097656 -83.90625 45.140625 -84.488281 45.140625 -85.03125 C 45.140625 -85.570312 45.140625 -86.390625 45.140625 -87.484375 C 45.140625 -88.578125 45.140625 -89.59375 45.140625 -90.53125 C 45.296875 -90.84375 46.9375 -92.554688 50.0625 -95.671875 C 48.96875 -95.203125 46.820312 -94.148438 43.625 -92.515625 C 40.425781 -90.878906 37.5 -89.4375 34.84375 -88.1875 C 32.195312 -86.9375 29.273438 -85.765625 26.078125 -84.671875 C 22.878906 -83.585938 19.953125 -83.046875 17.296875 -83.046875 C 14.648438 -83.046875 12.550781 -83.742188 11 -85.140625 C 9.75 -86.390625 9.046875 -88.378906 8.890625 -91.109375 C 8.734375 -93.835938 8.96875 -97.617188 9.59375 -102.453125 C 10.53125 -112.429688 14.425781 -117.890625 21.28125 -118.828125 C 24.71875 -119.140625 29.046875 -118.828125 34.265625 -117.890625 C 39.492188 -116.960938 43.628906 -116.300781 46.671875 -115.90625 C 49.710938 -115.519531 53.414062 -116.023438 57.78125 -117.421875 C 61.832031 -119.296875 64.171875 -120.546875 64.796875 -121.171875 C 63.546875 -119.765625 62.101562 -117.226562 60.46875 -113.5625 C 58.832031 -109.90625 57.078125 -106.789062 55.203125 -104.21875 C 53.335938 -101.644531 51 -100.046875 48.1875 -99.421875 Z M 44.21875 -22.453125 C 44.988281 -43.503906 45.0625 -62.21875 44.4375 -78.59375 C 43.507812 -79.375 40.664062 -79.488281 35.90625 -78.9375 C 31.144531 -78.394531 28.144531 -77.582031 26.90625 -76.5 C 25.8125 -75.40625 24.71875 -72.675781 23.625 -68.3125 C 21.4375 -59.257812 20.34375 -50.679688 20.34375 -42.578125 C 20.039062 -37.898438 20.195312 -34.390625 20.8125 -32.046875 C 20.96875 -25.804688 22.523438 -21.28125 25.484375 -18.46875 C 28.453125 -15.664062 31.726562 -14.769531 35.3125 -15.78125 C 38.90625 -16.800781 41.875 -19.023438 44.21875 -22.453125 Z M 67.609375 -107.140625 C 67.453125 -107.140625 67.375 -107.0625 67.375 -106.90625 L 66.90625 -106.671875 Z M 67.609375 -107.140625 "/></g></g></g><g fill="#2b2b2b" fill-opacity="0.4"><g transform="translate(170.283559, 249.811563)"><g><path d="M 23.15625 -93.796875 C 23.15625 -91.148438 23.234375 -89.046875 23.390625 -87.484375 C 23.703125 -89.046875 24.015625 -90.375 24.328125 -91.46875 C 25.109375 -94.582031 26.976562 -100.425781 29.9375 -109 C 32.90625 -117.582031 34.9375 -122.265625 36.03125 -123.046875 C 36.1875 -123.046875 36.335938 -123.046875 36.484375 -123.046875 C 36.640625 -123.046875 36.640625 -122.96875 36.484375 -122.8125 C 36.335938 -121.71875 36.335938 -121.09375 36.484375 -120.9375 L 41.171875 -119.296875 C 43.816406 -118.359375 46.894531 -117.5 50.40625 -116.71875 C 53.914062 -115.945312 58.046875 -115.363281 62.796875 -114.96875 C 67.554688 -114.582031 71.03125 -115.171875 73.21875 -116.734375 C 73.375 -116.878906 73.453125 -116.800781 73.453125 -116.5 C 73.765625 -115.09375 72.984375 -113.921875 71.109375 -112.984375 C 70.796875 -111.734375 70.40625 -110.953125 69.9375 -110.640625 C 69.78125 -110.328125 69.429688 -109.820312 68.890625 -109.125 C 68.347656 -108.425781 67.921875 -107.921875 67.609375 -107.609375 L 66.203125 -106.203125 C 66.203125 -106.046875 66.125 -105.96875 65.96875 -105.96875 C 65.65625 -105.65625 65.65625 -99.101562 65.96875 -86.3125 L 66.4375 -87.484375 C 66.90625 -89.828125 67.21875 -91.15625 67.375 -91.46875 C 67.6875 -92.394531 68.113281 -93.675781 68.65625 -95.3125 C 69.195312 -96.957031 69.625 -98.285156 69.9375 -99.296875 C 70.25 -100.304688 70.675781 -101.550781 71.21875 -103.03125 C 71.769531 -104.519531 72.238281 -105.734375 72.625 -106.671875 C 73.019531 -107.609375 73.488281 -108.695312 74.03125 -109.9375 C 74.582031 -111.1875 75.050781 -112.203125 75.4375 -112.984375 C 75.832031 -113.765625 76.300781 -114.546875 76.84375 -115.328125 C 77.382812 -116.109375 77.925781 -116.726562 78.46875 -117.1875 C 79.019531 -117.65625 79.53125 -117.96875 80 -118.125 C 81.40625 -118.59375 84.289062 -118.28125 88.65625 -117.1875 C 92.550781 -115.632812 96.953125 -114.703125 101.859375 -114.390625 C 106.773438 -114.078125 111.578125 -114.859375 116.265625 -116.734375 C 116.421875 -116.878906 116.5 -116.800781 116.5 -116.5 C 116.800781 -115.09375 116.019531 -113.921875 114.15625 -112.984375 C 113.84375 -111.734375 113.453125 -110.953125 112.984375 -110.640625 C 112.671875 -110.328125 112.238281 -109.820312 111.6875 -109.125 C 111.144531 -108.425781 110.796875 -107.921875 110.640625 -107.609375 L 109.234375 -106.203125 C 109.234375 -106.046875 109.15625 -105.96875 109 -105.96875 C 108.695312 -104.25 108.582031 -102.21875 108.65625 -99.875 C 108.738281 -97.539062 108.851562 -93.523438 109 -87.828125 C 109.15625 -82.140625 109.234375 -78.050781 109.234375 -75.5625 C 109.390625 -73.21875 109.425781 -70.210938 109.34375 -66.546875 C 109.269531 -62.878906 109.234375 -59.800781 109.234375 -57.3125 L 109.234375 -41.875 C 109.234375 -41.5625 109.117188 -38.675781 108.890625 -33.21875 C 108.660156 -27.757812 108.851562 -24.953125 109.46875 -24.796875 C 110.875 -14.035156 115.085938 -11.617188 122.109375 -17.546875 L 122.578125 -17.078125 C 121.015625 -14.265625 118.515625 -10.789062 115.078125 -6.65625 C 111.648438 -2.53125 109.472656 -0.46875 108.546875 -0.46875 C 106.671875 -0.46875 105.066406 -0.660156 103.734375 -1.046875 C 102.410156 -1.441406 101.28125 -2.257812 100.34375 -3.5 C 99.414062 -4.75 98.753906 -5.6875 98.359375 -6.3125 C 97.972656 -6.9375 97.3125 -8.265625 96.375 -10.296875 C 94.65625 -14.191406 93.796875 -20.894531 93.796875 -30.40625 C 93.796875 -37.738281 93.675781 -45.925781 93.4375 -54.96875 C 93.207031 -64.019531 93.09375 -72.207031 93.09375 -79.53125 C 93.09375 -80.9375 92.976562 -82.179688 92.75 -83.265625 C 92.519531 -84.359375 92.476562 -85.140625 92.625 -85.609375 C 92.78125 -86.078125 93.09375 -86.816406 93.5625 -87.828125 C 94.03125 -88.847656 95.125 -90.835938 96.84375 -93.796875 C 97.3125 -94.734375 98.484375 -96.140625 100.359375 -98.015625 C 99.734375 -97.703125 98.796875 -97.546875 97.546875 -97.546875 L 96.84375 -97.546875 L 96.375 -97.78125 C 96.21875 -97.78125 96.0625 -97.78125 95.90625 -97.78125 L 95.671875 -97.78125 C 94.421875 -98.09375 92.351562 -98.675781 89.46875 -99.53125 C 86.582031 -100.382812 84.554688 -100.847656 83.390625 -100.921875 C 82.222656 -101.003906 80.234375 -100.894531 77.421875 -100.59375 L 75.328125 -99.890625 C 72.515625 -98.484375 69.707031 -91.773438 66.90625 -79.765625 C 66.59375 -78.203125 66.4375 -77.1875 66.4375 -76.71875 L 66.4375 -65.5 C 73.445312 -65.8125 77.96875 -66.671875 80 -68.078125 C 81.09375 -68.847656 82.5 -71.109375 84.21875 -74.859375 L 84.671875 -74.859375 C 85.140625 -74.703125 85.375 -74.546875 85.375 -74.390625 C 84.445312 -70.492188 82.890625 -66.359375 80.703125 -61.984375 C 78.515625 -57.617188 76.097656 -54.890625 73.453125 -53.796875 C 71.890625 -53.484375 69.472656 -53.328125 66.203125 -53.328125 L 66.203125 -41.875 C 66.203125 -41.5625 66.082031 -38.675781 65.84375 -33.21875 C 65.613281 -27.757812 65.8125 -24.953125 66.4375 -24.796875 C 67.84375 -14.035156 72.050781 -11.617188 79.0625 -17.546875 L 79.53125 -17.078125 C 77.8125 -13.953125 75.394531 -10.398438 72.28125 -6.421875 C 69.164062 -2.453125 66.90625 -0.46875 65.5 -0.46875 C 63.625 -0.46875 62.023438 -0.660156 60.703125 -1.046875 C 59.378906 -1.441406 58.25 -2.257812 57.3125 -3.5 C 56.375 -4.75 55.707031 -5.6875 55.3125 -6.3125 C 54.925781 -6.9375 54.265625 -8.265625 53.328125 -10.296875 C 51.617188 -14.191406 50.765625 -20.894531 50.765625 -30.40625 C 50.765625 -34.15625 50.722656 -38.523438 50.640625 -43.515625 C 50.566406 -48.503906 50.53125 -51.851562 50.53125 -53.5625 C 47.71875 -53.5625 45.6875 -53.484375 44.4375 -53.328125 C 40.226562 -53.015625 37.113281 -52.238281 35.09375 -51 C 34 -50.0625 32.59375 -47.722656 30.875 -43.984375 C 30.875 -44.140625 30.71875 -44.21875 30.40625 -44.21875 L 29.9375 -44.671875 C 30.875 -48.734375 32.429688 -52.90625 34.609375 -57.1875 C 36.796875 -61.476562 39.21875 -64.171875 41.875 -65.265625 C 42.5 -65.265625 43.046875 -65.34375 43.515625 -65.5 L 50.296875 -65.5 C 50.296875 -66.75 50.253906 -68.894531 50.171875 -71.9375 C 50.097656 -74.976562 50.0625 -77.507812 50.0625 -79.53125 C 50.0625 -80.9375 49.941406 -82.179688 49.703125 -83.265625 C 49.472656 -84.359375 49.4375 -85.140625 49.59375 -85.609375 C 49.75 -86.078125 50.0625 -86.816406 50.53125 -87.828125 C 51 -88.847656 52.085938 -90.835938 53.796875 -93.796875 C 54.265625 -94.734375 55.4375 -96.140625 57.3125 -98.015625 C 56.6875 -97.703125 55.75 -97.546875 54.5 -97.546875 L 53.796875 -97.546875 L 53.328125 -97.78125 C 53.171875 -97.78125 53.015625 -97.78125 52.859375 -97.78125 L 52.625 -97.78125 C 51.382812 -98.09375 49.320312 -98.675781 46.4375 -99.53125 C 43.550781 -100.382812 41.519531 -100.847656 40.34375 -100.921875 C 39.175781 -101.003906 37.191406 -100.894531 34.390625 -100.59375 L 32.28125 -99.890625 C 29.476562 -98.484375 26.671875 -91.773438 23.859375 -79.765625 C 23.546875 -78.203125 23.390625 -77.1875 23.390625 -76.71875 L 23.390625 -72.984375 C 23.390625 -72.828125 23.3125 -72.671875 23.15625 -72.515625 L 23.15625 -41.875 C 23.15625 -41.5625 23.035156 -38.675781 22.796875 -33.21875 C 22.566406 -27.757812 22.765625 -24.953125 23.390625 -24.796875 C 25.109375 -14.035156 29.320312 -11.617188 36.03125 -17.546875 L 36.484375 -17.078125 C 35.242188 -14.421875 32.867188 -10.988281 29.359375 -6.78125 C 25.847656 -2.570312 23.546875 -0.46875 22.453125 -0.46875 C 20.585938 -0.46875 18.988281 -0.660156 17.65625 -1.046875 C 16.332031 -1.441406 15.203125 -2.257812 14.265625 -3.5 C 13.328125 -4.75 12.664062 -5.6875 12.28125 -6.3125 C 11.894531 -6.9375 11.234375 -8.265625 10.296875 -10.296875 C 8.578125 -14.191406 7.71875 -20.894531 7.71875 -30.40625 C 7.71875 -41.320312 7.640625 -49.664062 7.484375 -55.4375 C 7.484375 -60.113281 7.441406 -67.207031 7.359375 -76.71875 C 7.285156 -86.238281 7.25 -93.257812 7.25 -97.78125 C 7.25 -97.9375 7.25 -98.171875 7.25 -98.484375 C 7.25 -99.578125 7.25 -100.429688 7.25 -101.046875 C 7.25 -101.671875 7.171875 -102.609375 7.015625 -103.859375 C 6.859375 -105.109375 6.625 -106.046875 6.3125 -106.671875 C 6 -107.296875 5.609375 -107.878906 5.140625 -108.421875 C 4.671875 -108.960938 4.007812 -109.117188 3.15625 -108.890625 C 2.300781 -108.660156 1.328125 -108.15625 0.234375 -107.375 C 0.703125 -110.800781 3.273438 -115.164062 7.953125 -120.46875 C 8.890625 -122.03125 11.5 -121.757812 15.78125 -119.65625 C 20.070312 -117.550781 22.375 -115.484375 22.6875 -113.453125 C 23 -112.515625 23.15625 -105.960938 23.15625 -93.796875 Z M 23.15625 -93.796875 "/></g></g></g><g fill="#2b2b2b" fill-opacity="1"><g transform="translate(87.82879, 245.7899)"><g><path d="M 48.1875 -99.421875 C 46.46875 -99.421875 43.113281 -99.726562 38.125 -100.34375 C 33.132812 -100.96875 29.117188 -101.4375 26.078125 -101.75 C 23.035156 -102.0625 20.425781 -101.90625 18.25 -101.28125 C 15.28125 -100.351562 13.097656 -98.09375 11.703125 -94.5 C 9.046875 -87.175781 11.695312 -84.210938 19.65625 -85.609375 C 26.976562 -86.859375 39.6875 -92.472656 57.78125 -102.453125 C 60.738281 -104.015625 63.78125 -105.421875 66.90625 -106.671875 C 64.71875 -105.109375 63.347656 -102.6875 62.796875 -99.40625 C 62.253906 -96.132812 61.90625 -91.222656 61.75 -84.671875 C 61.75 -83.585938 61.75 -82.734375 61.75 -82.109375 C 68.925781 -82.109375 75.242188 -82.421875 80.703125 -83.046875 C 81.484375 -83.046875 81.953125 -82.535156 82.109375 -81.515625 C 82.265625 -80.503906 81.953125 -79.765625 81.171875 -79.296875 C 80.078125 -79.765625 76.566406 -80 70.640625 -80 C 64.710938 -80 61.671875 -79.6875 61.515625 -79.0625 L 61.515625 -72.046875 C 61.515625 -70.484375 61.515625 -68.765625 61.515625 -66.890625 C 61.515625 -65.023438 61.515625 -62.960938 61.515625 -60.703125 C 61.515625 -58.441406 61.515625 -56.6875 61.515625 -55.4375 C 61.828125 -44.988281 61.90625 -37.191406 61.75 -32.046875 L 61.75 -31.109375 C 61.75 -30.640625 61.828125 -29.195312 61.984375 -26.78125 C 62.140625 -24.363281 62.296875 -22.53125 62.453125 -21.28125 C 62.609375 -20.039062 63.035156 -18.484375 63.734375 -16.609375 C 64.441406 -14.734375 65.34375 -13.5625 66.4375 -13.09375 C 67.53125 -12.625 69.085938 -12.582031 71.109375 -12.96875 C 73.140625 -13.363281 75.554688 -14.5 78.359375 -16.375 C 78.515625 -16.375 78.671875 -16.375 78.828125 -16.375 C 79.140625 -16.375 79.332031 -16.332031 79.40625 -16.25 C 79.488281 -16.175781 79.453125 -15.984375 79.296875 -15.671875 C 74.304688 -8.648438 68.847656 -3.660156 62.921875 -0.703125 C 59.179688 1.171875 55.359375 0.160156 51.453125 -3.734375 C 47.554688 -7.640625 45.53125 -12.007812 45.375 -16.84375 C 43.976562 -14.96875 43.203125 -14.03125 43.046875 -14.03125 C 37.117188 -6.863281 32.128906 -2.578125 28.078125 -1.171875 C 25.265625 -0.390625 22.457031 -0.46875 19.65625 -1.40625 C 11.851562 -6.082031 6.664062 -11.847656 4.09375 -18.703125 C 1.519531 -25.566406 1.128906 -32.234375 2.921875 -38.703125 C 4.710938 -45.179688 7.085938 -51.304688 10.046875 -57.078125 C 13.015625 -62.847656 15.707031 -67.523438 18.125 -71.109375 C 20.539062 -74.703125 21.515625 -76.5 21.046875 -76.5 C 15.898438 -76.800781 10.789062 -75.472656 5.71875 -72.515625 C 0.65625 -69.554688 -2.960938 -65.96875 -5.140625 -61.75 C -5.921875 -60.195312 -6.78125 -60.195312 -7.71875 -61.75 C -7.5625 -62.21875 -7.25 -63.269531 -6.78125 -64.90625 C -6.3125 -66.550781 -5.957031 -67.679688 -5.71875 -68.296875 C -5.488281 -68.921875 -5.101562 -69.9375 -4.5625 -71.34375 C -4.019531 -72.75 -3.515625 -73.765625 -3.046875 -74.390625 C -2.578125 -75.015625 -1.953125 -75.789062 -1.171875 -76.71875 C -0.390625 -77.65625 0.425781 -78.394531 1.28125 -78.9375 C 2.144531 -79.488281 3.117188 -79.921875 4.203125 -80.234375 C 5.296875 -81.015625 10.015625 -81.363281 18.359375 -81.28125 C 26.703125 -81.207031 31.5 -81.171875 32.75 -81.171875 C 37.269531 -81.171875 41.09375 -81.328125 44.21875 -81.640625 C 44.363281 -81.640625 44.515625 -81.753906 44.671875 -81.984375 C 44.828125 -82.222656 44.941406 -82.65625 45.015625 -83.28125 C 45.097656 -83.90625 45.140625 -84.488281 45.140625 -85.03125 C 45.140625 -85.570312 45.140625 -86.390625 45.140625 -87.484375 C 45.140625 -88.578125 45.140625 -89.59375 45.140625 -90.53125 C 45.296875 -90.84375 46.9375 -92.554688 50.0625 -95.671875 C 48.96875 -95.203125 46.820312 -94.148438 43.625 -92.515625 C 40.425781 -90.878906 37.5 -89.4375 34.84375 -88.1875 C 32.195312 -86.9375 29.273438 -85.765625 26.078125 -84.671875 C 22.878906 -83.585938 19.953125 -83.046875 17.296875 -83.046875 C 14.648438 -83.046875 12.550781 -83.742188 11 -85.140625 C 9.75 -86.390625 9.046875 -88.378906 8.890625 -91.109375 C 8.734375 -93.835938 8.96875 -97.617188 9.59375 -102.453125 C 10.53125 -112.429688 14.425781 -117.890625 21.28125 -118.828125 C 24.71875 -119.140625 29.046875 -118.828125 34.265625 -117.890625 C 39.492188 -116.960938 43.628906 -116.300781 46.671875 -115.90625 C 49.710938 -115.519531 53.414062 -116.023438 57.78125 -117.421875 C 61.832031 -119.296875 64.171875 -120.546875 64.796875 -121.171875 C 63.546875 -119.765625 62.101562 -117.226562 60.46875 -113.5625 C 58.832031 -109.90625 57.078125 -106.789062 55.203125 -104.21875 C 53.335938 -101.644531 51 -100.046875 48.1875 -99.421875 Z M 44.21875 -22.453125 C 44.988281 -43.503906 45.0625 -62.21875 44.4375 -78.59375 C 43.507812 -79.375 40.664062 -79.488281 35.90625 -78.9375 C 31.144531 -78.394531 28.144531 -77.582031 26.90625 -76.5 C 25.8125 -75.40625 24.71875 -72.675781 23.625 -68.3125 C 21.4375 -59.257812 20.34375 -50.679688 20.34375 -42.578125 C 20.039062 -37.898438 20.195312 -34.390625 20.8125 -32.046875 C 20.96875 -25.804688 22.523438 -21.28125 25.484375 -18.46875 C 28.453125 -15.664062 31.726562 -14.769531 35.3125 -15.78125 C 38.90625 -16.800781 41.875 -19.023438 44.21875 -22.453125 Z M 67.609375 -107.140625 C 67.453125 -107.140625 67.375 -107.0625 67.375 -106.90625 L 66.90625 -106.671875 Z M 67.609375 -107.140625 "/></g></g></g><g fill="#2b2b2b" fill-opacity="1"><g transform="translate(167.361652, 245.7899)"><g><path d="M 23.15625 -93.796875 C 23.15625 -91.148438 23.234375 -89.046875 23.390625 -87.484375 C 23.703125 -89.046875 24.015625 -90.375 24.328125 -91.46875 C 25.109375 -94.582031 26.976562 -100.425781 29.9375 -109 C 32.90625 -117.582031 34.9375 -122.265625 36.03125 -123.046875 C 36.1875 -123.046875 36.335938 -123.046875 36.484375 -123.046875 C 36.640625 -123.046875 36.640625 -122.96875 36.484375 -122.8125 C 36.335938 -121.71875 36.335938 -121.09375 36.484375 -120.9375 L 41.171875 -119.296875 C 43.816406 -118.359375 46.894531 -117.5 50.40625 -116.71875 C 53.914062 -115.945312 58.046875 -115.363281 62.796875 -114.96875 C 67.554688 -114.582031 71.03125 -115.171875 73.21875 -116.734375 C 73.375 -116.878906 73.453125 -116.800781 73.453125 -116.5 C 73.765625 -115.09375 72.984375 -113.921875 71.109375 -112.984375 C 70.796875 -111.734375 70.40625 -110.953125 69.9375 -110.640625 C 69.78125 -110.328125 69.429688 -109.820312 68.890625 -109.125 C 68.347656 -108.425781 67.921875 -107.921875 67.609375 -107.609375 L 66.203125 -106.203125 C 66.203125 -106.046875 66.125 -105.96875 65.96875 -105.96875 C 65.65625 -105.65625 65.65625 -99.101562 65.96875 -86.3125 L 66.4375 -87.484375 C 66.90625 -89.828125 67.21875 -91.15625 67.375 -91.46875 C 67.6875 -92.394531 68.113281 -93.675781 68.65625 -95.3125 C 69.195312 -96.957031 69.625 -98.285156 69.9375 -99.296875 C 70.25 -100.304688 70.675781 -101.550781 71.21875 -103.03125 C 71.769531 -104.519531 72.238281 -105.734375 72.625 -106.671875 C 73.019531 -107.609375 73.488281 -108.695312 74.03125 -109.9375 C 74.582031 -111.1875 75.050781 -112.203125 75.4375 -112.984375 C 75.832031 -113.765625 76.300781 -114.546875 76.84375 -115.328125 C 77.382812 -116.109375 77.925781 -116.726562 78.46875 -117.1875 C 79.019531 -117.65625 79.53125 -117.96875 80 -118.125 C 81.40625 -118.59375 84.289062 -118.28125 88.65625 -117.1875 C 92.550781 -115.632812 96.953125 -114.703125 101.859375 -114.390625 C 106.773438 -114.078125 111.578125 -114.859375 116.265625 -116.734375 C 116.421875 -116.878906 116.5 -116.800781 116.5 -116.5 C 116.800781 -115.09375 116.019531 -113.921875 114.15625 -112.984375 C 113.84375 -111.734375 113.453125 -110.953125 112.984375 -110.640625 C 112.671875 -110.328125 112.238281 -109.820312 111.6875 -109.125 C 111.144531 -108.425781 110.796875 -107.921875 110.640625 -107.609375 L 109.234375 -106.203125 C 109.234375 -106.046875 109.15625 -105.96875 109 -105.96875 C 108.695312 -104.25 108.582031 -102.21875 108.65625 -99.875 C 108.738281 -97.539062 108.851562 -93.523438 109 -87.828125 C 109.15625 -82.140625 109.234375 -78.050781 109.234375 -75.5625 C 109.390625 -73.21875 109.425781 -70.210938 109.34375 -66.546875 C 109.269531 -62.878906 109.234375 -59.800781 109.234375 -57.3125 L 109.234375 -41.875 C 109.234375 -41.5625 109.117188 -38.675781 108.890625 -33.21875 C 108.660156 -27.757812 108.851562 -24.953125 109.46875 -24.796875 C 110.875 -14.035156 115.085938 -11.617188 122.109375 -17.546875 L 122.578125 -17.078125 C 121.015625 -14.265625 118.515625 -10.789062 115.078125 -6.65625 C 111.648438 -2.53125 109.472656 -0.46875 108.546875 -0.46875 C 106.671875 -0.46875 105.066406 -0.660156 103.734375 -1.046875 C 102.410156 -1.441406 101.28125 -2.257812 100.34375 -3.5 C 99.414062 -4.75 98.753906 -5.6875 98.359375 -6.3125 C 97.972656 -6.9375 97.3125 -8.265625 96.375 -10.296875 C 94.65625 -14.191406 93.796875 -20.894531 93.796875 -30.40625 C 93.796875 -37.738281 93.675781 -45.925781 93.4375 -54.96875 C 93.207031 -64.019531 93.09375 -72.207031 93.09375 -79.53125 C 93.09375 -80.9375 92.976562 -82.179688 92.75 -83.265625 C 92.519531 -84.359375 92.476562 -85.140625 92.625 -85.609375 C 92.78125 -86.078125 93.09375 -86.816406 93.5625 -87.828125 C 94.03125 -88.847656 95.125 -90.835938 96.84375 -93.796875 C 97.3125 -94.734375 98.484375 -96.140625 100.359375 -98.015625 C 99.734375 -97.703125 98.796875 -97.546875 97.546875 -97.546875 L 96.84375 -97.546875 L 96.375 -97.78125 C 96.21875 -97.78125 96.0625 -97.78125 95.90625 -97.78125 L 95.671875 -97.78125 C 94.421875 -98.09375 92.351562 -98.675781 89.46875 -99.53125 C 86.582031 -100.382812 84.554688 -100.847656 83.390625 -100.921875 C 82.222656 -101.003906 80.234375 -100.894531 77.421875 -100.59375 L 75.328125 -99.890625 C 72.515625 -98.484375 69.707031 -91.773438 66.90625 -79.765625 C 66.59375 -78.203125 66.4375 -77.1875 66.4375 -76.71875 L 66.4375 -65.5 C 73.445312 -65.8125 77.96875 -66.671875 80 -68.078125 C 81.09375 -68.847656 82.5 -71.109375 84.21875 -74.859375 L 84.671875 -74.859375 C 85.140625 -74.703125 85.375 -74.546875 85.375 -74.390625 C 84.445312 -70.492188 82.890625 -66.359375 80.703125 -61.984375 C 78.515625 -57.617188 76.097656 -54.890625 73.453125 -53.796875 C 71.890625 -53.484375 69.472656 -53.328125 66.203125 -53.328125 L 66.203125 -41.875 C 66.203125 -41.5625 66.082031 -38.675781 65.84375 -33.21875 C 65.613281 -27.757812 65.8125 -24.953125 66.4375 -24.796875 C 67.84375 -14.035156 72.050781 -11.617188 79.0625 -17.546875 L 79.53125 -17.078125 C 77.8125 -13.953125 75.394531 -10.398438 72.28125 -6.421875 C 69.164062 -2.453125 66.90625 -0.46875 65.5 -0.46875 C 63.625 -0.46875 62.023438 -0.660156 60.703125 -1.046875 C 59.378906 -1.441406 58.25 -2.257812 57.3125 -3.5 C 56.375 -4.75 55.707031 -5.6875 55.3125 -6.3125 C 54.925781 -6.9375 54.265625 -8.265625 53.328125 -10.296875 C 51.617188 -14.191406 50.765625 -20.894531 50.765625 -30.40625 C 50.765625 -34.15625 50.722656 -38.523438 50.640625 -43.515625 C 50.566406 -48.503906 50.53125 -51.851562 50.53125 -53.5625 C 47.71875 -53.5625 45.6875 -53.484375 44.4375 -53.328125 C 40.226562 -53.015625 37.113281 -52.238281 35.09375 -51 C 34 -50.0625 32.59375 -47.722656 30.875 -43.984375 C 30.875 -44.140625 30.71875 -44.21875 30.40625 -44.21875 L 29.9375 -44.671875 C 30.875 -48.734375 32.429688 -52.90625 34.609375 -57.1875 C 36.796875 -61.476562 39.21875 -64.171875 41.875 -65.265625 C 42.5 -65.265625 43.046875 -65.34375 43.515625 -65.5 L 50.296875 -65.5 C 50.296875 -66.75 50.253906 -68.894531 50.171875 -71.9375 C 50.097656 -74.976562 50.0625 -77.507812 50.0625 -79.53125 C 50.0625 -80.9375 49.941406 -82.179688 49.703125 -83.265625 C 49.472656 -84.359375 49.4375 -85.140625 49.59375 -85.609375 C 49.75 -86.078125 50.0625 -86.816406 50.53125 -87.828125 C 51 -88.847656 52.085938 -90.835938 53.796875 -93.796875 C 54.265625 -94.734375 55.4375 -96.140625 57.3125 -98.015625 C 56.6875 -97.703125 55.75 -97.546875 54.5 -97.546875 L 53.796875 -97.546875 L 53.328125 -97.78125 C 53.171875 -97.78125 53.015625 -97.78125 52.859375 -97.78125 L 52.625 -97.78125 C 51.382812 -98.09375 49.320312 -98.675781 46.4375 -99.53125 C 43.550781 -100.382812 41.519531 -100.847656 40.34375 -100.921875 C 39.175781 -101.003906 37.191406 -100.894531 34.390625 -100.59375 L 32.28125 -99.890625 C 29.476562 -98.484375 26.671875 -91.773438 23.859375 -79.765625 C 23.546875 -78.203125 23.390625 -77.1875 23.390625 -76.71875 L 23.390625 -72.984375 C 23.390625 -72.828125 23.3125 -72.671875 23.15625 -72.515625 L 23.15625 -41.875 C 23.15625 -41.5625 23.035156 -38.675781 22.796875 -33.21875 C 22.566406 -27.757812 22.765625 -24.953125 23.390625 -24.796875 C 25.109375 -14.035156 29.320312 -11.617188 36.03125 -17.546875 L 36.484375 -17.078125 C 35.242188 -14.421875 32.867188 -10.988281 29.359375 -6.78125 C 25.847656 -2.570312 23.546875 -0.46875 22.453125 -0.46875 C 20.585938 -0.46875 18.988281 -0.660156 17.65625 -1.046875 C 16.332031 -1.441406 15.203125 -2.257812 14.265625 -3.5 C 13.328125 -4.75 12.664062 -5.6875 12.28125 -6.3125 C 11.894531 -6.9375 11.234375 -8.265625 10.296875 -10.296875 C 8.578125 -14.191406 7.71875 -20.894531 7.71875 -30.40625 C 7.71875 -41.320312 7.640625 -49.664062 7.484375 -55.4375 C 7.484375 -60.113281 7.441406 -67.207031 7.359375 -76.71875 C 7.285156 -86.238281 7.25 -93.257812 7.25 -97.78125 C 7.25 -97.9375 7.25 -98.171875 7.25 -98.484375 C 7.25 -99.578125 7.25 -100.429688 7.25 -101.046875 C 7.25 -101.671875 7.171875 -102.609375 7.015625 -103.859375 C 6.859375 -105.109375 6.625 -106.046875 6.3125 -106.671875 C 6 -107.296875 5.609375 -107.878906 5.140625 -108.421875 C 4.671875 -108.960938 4.007812 -109.117188 3.15625 -108.890625 C 2.300781 -108.660156 1.328125 -108.15625 0.234375 -107.375 C 0.703125 -110.800781 3.273438 -115.164062 7.953125 -120.46875 C 8.890625 -122.03125 11.5 -121.757812 15.78125 -119.65625 C 20.070312 -117.550781 22.375 -115.484375 22.6875 -113.453125 C 23 -112.515625 23.15625 -105.960938 23.15625 -93.796875 Z M 23.15625 -93.796875 "/></g></g></g></svg>